<svg xmlns="http://www.w3.org/2000/svg" width="1280" height="328" viewBox="0 0 1280 328" role="img"><rect width="100%" height="100%" fill="#fffdfa"/><rect x="32" y="28" width="1216" height="272" rx="28" fill="#fff5db"/><text x="70" y="66" font-family="Inter, Arial, sans-serif" font-size="26" font-weight="700" fill="#241f17">RTSP to WebRTC pipeline</text><text x="70" y="92" font-family="Inter, Arial, sans-serif" font-size="15" fill="#665d4e">Methodology translated into a stepwise execution view</text><rect x="70" y="110" width="220" height="70" rx="18" fill="white" stroke="#eadfc7" stroke-width="2"/><text x="88" y="142" font-family="Inter, Arial, sans-serif" font-size="20" font-weight="700" fill="#241f17">Step 1</text><text x="88" y="166" font-family="Inter, Arial, sans-serif" font-size="14" fill="#665d4e">Started from the client&#x27;s existing RTSP camera</text><line x1="302" y1="145" x2="318" y2="145" stroke="#a16207" stroke-width="4"/><polygon points="318,145 308,139 308,151" fill="#a16207"/><rect x="320" y="110" width="220" height="70" rx="18" fill="white" stroke="#eadfc7" stroke-width="2"/><text x="338" y="142" font-family="Inter, Arial, sans-serif" font-size="20" font-weight="700" fill="#241f17">Step 2</text><text x="338" y="166" font-family="Inter, Arial, sans-serif" font-size="14" fill="#665d4e">Used GStreamer to ingest, decode, transform, a</text><line x1="552" y1="145" x2="568" y2="145" stroke="#a16207" stroke-width="4"/><polygon points="568,145 558,139 558,151" fill="#a16207"/><rect x="570" y="110" width="220" height="70" rx="18" fill="white" stroke="#eadfc7" stroke-width="2"/><text x="588" y="142" font-family="Inter, Arial, sans-serif" font-size="20" font-weight="700" fill="#241f17">Step 3</text><text x="588" y="166" font-family="Inter, Arial, sans-serif" font-size="14" fill="#665d4e">Delivered the live stream through WebRTC so op</text><line x1="802" y1="145" x2="818" y2="145" stroke="#a16207" stroke-width="4"/><polygon points="818,145 808,139 808,151" fill="#a16207"/><rect x="820" y="110" width="220" height="70" rx="18" fill="white" stroke="#eadfc7" stroke-width="2"/><text x="838" y="142" font-family="Inter, Arial, sans-serif" font-size="20" font-weight="700" fill="#241f17">Step 4</text><text x="838" y="166" font-family="Inter, Arial, sans-serif" font-size="14" fill="#665d4e">Coordinated browser connection setup through a</text></svg>